<?xml version="1.0" encoding="UTF-8" standalone="no" ?>
<!DOCTYPE svg PUBLIC "-//W3C//DTD SVG 1.1//EN" "http://www.w3.org/Graphics/SVG/1.1/DTD/svg11.dtd">
<svg xmlns="http://www.w3.org/2000/svg" xmlns:xlink="http://www.w3.org/1999/xlink" version="1.1" width="500" height="500" viewBox="0 0 500 500" xml:space="preserve">
<desc>Created with Fabric.js 3.6.3</desc>
<defs>
</defs>
<g transform="matrix(0.21341282063755618 0.032587181330443915 -0.03258718133044393 0.2134128206375562 134.99999963834875 251.0000003616513)"  >
<path style="stroke: none; stroke-width: 0; stroke-dasharray: none; stroke-linecap: round; stroke-dashoffset: 0; stroke-linejoin: round; stroke-miterlimit: 4; fill: rgb(115,115,115); fill-rule: nonzero; opacity: 0.3;"  transform=" translate(-347.214464, -408.15557)" d="m 239.32338 158.15557 c -78.60067 0 -142.108912 63.50635 -142.108912 142.10701 l 0 215.78407 c 0 78.60067 63.508242 142.10892 142.108912 142.10892 l 215.78217 0 c 78.60067 0 142.10891 -63.50825 142.10891 -142.10892 l 0 -215.78407 c 0 -78.60066 -63.50824 -142.10701 -142.10891 -142.10701 l -215.78217 0 z" stroke-linecap="round" />
</g>
<g transform="matrix(0.19725079815031887 -4.831e-17 4.831e-17 0.19725079815031885 134.99999963834892 251.00000036165136)"  >
<path style="stroke: none; stroke-width: 0; stroke-dasharray: none; stroke-linecap: round; stroke-dashoffset: 0; stroke-linejoin: round; stroke-miterlimit: 4; fill: rgb(0,0,0); fill-rule: nonzero; opacity: 1;"  transform=" translate(-347.214464, -408.15557)" d="m 239.32338 158.15557 c -78.60067 0 -142.108912 63.50635 -142.108912 142.10701 l 0 215.78407 c 0 78.60067 63.508242 142.10892 142.108912 142.10892 l 215.78217 0 c 78.60067 0 142.10891 -63.50825 142.10891 -142.10892 l 0 -215.78407 c 0 -78.60066 -63.50824 -142.10701 -142.10891 -142.10701 l -215.78217 0 z" stroke-linecap="round" />
</g>
<g transform="matrix(0.7071572946851343 0 0 0.7071572946851342 134.99999963834873 251.0000003616516)"  >
<linearGradient id="SVGID_39400" gradientUnits="userSpaceOnUse" gradientTransform="matrix(1 0 0 1 9 6.606999999999999)"  x1="0" y1="0" x2="84.52" y2="86.881">
<stop offset="0%" style="stop-color:rgb(0,221,255);stop-opacity: 1"/>
<stop offset="100%" style="stop-color:rgb(255,0,212);stop-opacity: 1"/>
</linearGradient>
<path style="stroke: none; stroke-width: 0; stroke-dasharray: none; stroke-linecap: butt; stroke-dashoffset: 0; stroke-linejoin: miter; stroke-miterlimit: 4; fill: url(#SVGID_39400); fill-rule: nonzero; opacity: 1;"  transform=" translate(-51.26, -50.0475)" d="M 23.706 41.28 c 7.597 1.779 17.713 2.866 28.828 2.866 c 17.174 0 31.972 -2.592 38.769 -6.329 l 2.217 -14.813 c -7.598 2.574 -20.597 4.271 -35.363 4.271 c -23.43 0 -42.423 -4.272 -42.423 -9.542 c 0 -5.271 18.993 -9.543 42.423 -9.543 c 10.436 0 19.985 0.849 27.375 2.254 C 77.71 8.111 65.489 6.607 51.742 6.607 C 28.137 6.607 9 11.036 9 16.501 c 0 0.134 0.021 0.267 0.043 0.4 H 9.039 l 2.959 19.773 c 1.459 1.119 3.61 2.157 6.315 3.082 c -3.398 1.329 -5.356 2.877 -5.356 4.532 c 0 0.121 0.019 0.24 0.04 0.36 h -0.004 l 2.672 17.827 c 1.561 1.194 4 2.384 7.109 3.463 c -4.18 1.34 -6.65 2.984 -6.65 4.763 c 0 0.11 0.018 0.22 0.036 0.33 h -0.004 L 18.6 85.218 c 4.674 3.578 17.887 8.27 33.47 8.27 c 14.18 0 25.871 -3.191 31.481 -6.271 l 2.359 -13.794 c -6.273 2.122 -20.173 6.16 -32.365 6.16 c -19.345 0 -31.862 -3.522 -31.862 -7.866 c 0 -1.61 2.161 -3.108 5.861 -4.355 c 6.696 1.72 15.312 2.907 24.73 2.907 c 15.511 0 28.876 -3.392 35.012 -6.762 l 2.004 -14.938 c -6.861 2.321 -18.602 5.435 -31.937 5.435 c -21.161 0 -38.315 -3.852 -38.315 -8.604 C 19.039 43.906 20.731 42.503 23.706 41.28 z" stroke-linecap="round" />
</g>
<g transform="matrix(1 0 0 1 340.2444569388458 249.9895897215893)" style=""  ><path fill="#545454" opacity="1" d="M-110.92-11.03L-110.92-11.03Q-107.11-7.83-107.11-1.24L-107.11-1.24Q-107.11 5.52-110.96 8.73L-110.96 8.73Q-114.02 11.22-119.61 11.22L-119.61 11.22L-130.32 11.22L-130.32-13.77L-119.61-13.77Q-114.16-13.77-110.92-11.03ZM-124.34 5.52L-119.61 5.52Q-117.68 5.52-116.38 5.18Q-115.09 4.85-114.28 4.05Q-113.48 3.24-113.14 1.95Q-112.81 0.65-112.81-1.24L-112.81-1.24Q-112.81-5.12-114.62-6.69L-114.62-6.69Q-116.26-8.04-119.61-8.04L-119.61-8.04L-124.34-8.04Q-124.63-8.04-124.63-7.76L-124.63-7.76L-124.63 5.24Q-124.63 5.52-124.34 5.52L-124.34 5.52Z"/><path fill="#545454" opacity="1" d="M-87.46-13.74L-78.49 11.22L-84.54 11.22L-85.47 8.69Q-85.54 8.44-85.79 8.44L-85.79 8.44L-96.54 8.44Q-96.75 8.44-96.86 8.69L-96.86 8.69L-97.75 11.22L-103.80 11.22L-94.83-13.74L-87.46-13.74ZM-91.48-6.26L-94.54 2.28Q-94.62 2.46-94.51 2.60Q-94.40 2.75-94.22 2.75L-94.22 2.75L-88.06 2.75Q-87.60 2.75-87.74 2.28L-87.74 2.28L-90.81-6.26Q-90.91-6.51-91.16-6.51Q-91.41-6.51-91.48-6.26L-91.48-6.26Z"/><path fill="#545454" opacity="1" d="M-80.16-13.74L-58.13-13.74L-58.13-8.04L-66.03-8.04Q-66.28-8.04-66.28-7.79L-66.28-7.79L-66.28 11.22L-71.97 11.22L-71.97-7.79Q-71.97-8.04-72.22-8.04L-72.22-8.04L-80.16-8.04L-80.16-13.74Z"/><path fill="#545454" opacity="1" d="M-43.14-13.74L-34.17 11.22L-40.22 11.22L-41.14 8.69Q-41.22 8.44-41.46 8.44L-41.46 8.44L-52.22 8.44Q-52.43 8.44-52.54 8.69L-52.54 8.69L-53.43 11.22L-59.48 11.22L-50.51-13.74L-43.14-13.74ZM-47.16-6.26L-50.22 2.28Q-50.29 2.46-50.19 2.60Q-50.08 2.75-49.90 2.75L-49.90 2.75L-43.74 2.75Q-43.28 2.75-43.42 2.28L-43.42 2.28L-46.48-6.26Q-46.59-6.51-46.84-6.51Q-47.09-6.51-47.16-6.26L-47.16-6.26Z"/><path fill="#545454" opacity="1" d="M-12.24-1.38L-12.24-1.38Q-11.31-0.35-10.83 0.93Q-10.35 2.21-10.35 3.60L-10.35 3.60Q-10.35 5.17-10.94 6.54Q-11.52 7.91-12.56 8.94Q-13.59 9.97-14.96 10.56Q-16.33 11.15-17.90 11.15L-17.90 11.15L-31.25 11.15L-31.25-13.70L-17.90-13.70Q-16.30-13.70-14.91-13.11Q-13.52-12.53-12.49-11.42L-12.49-11.42Q-11.56-10.39-11.04-9.04Q-10.53-7.68-10.53-6.15L-10.53-6.15Q-10.53-3.41-12.24-1.38ZM-25.59-7.72L-25.59-4.45Q-25.59-4.12-25.23-4.12L-25.23-4.12L-18.11-4.12Q-17.36-4.12-16.79-4.71Q-16.22-5.30-16.22-6.12L-16.22-6.12Q-16.19-6.94-16.76-7.49Q-17.33-8.04-18.11-8.04L-18.11-8.04L-25.23-8.04Q-25.59-8.04-25.59-7.72L-25.59-7.72ZM-25.59 1.89L-25.59 5.17Q-25.59 5.49-25.23 5.49L-25.23 5.49L-17.93 5.49Q-17.15 5.49-16.58 4.94Q-16.01 4.38-16.01 3.56L-16.01 3.56Q-16.05 2.75-16.60 2.16Q-17.15 1.57-17.90 1.57L-17.90 1.57L-25.23 1.57Q-25.59 1.57-25.59 1.89L-25.59 1.89Z"/><path fill="#545454" opacity="1" d="M-0.74 5.13L-0.74 5.13Q-0.74 5.52-0.35 5.52L-0.35 5.52L12.43 5.52L12.43 11.22L-6.43 11.22L-6.43-13.74L-0.74-13.74L-0.74 5.13Z"/><path fill="#545454" opacity="1" d="M36.57-7.97L22.26-7.97Q21.97-7.97 21.97-7.68L21.97-7.68L21.97-2.95Q21.97-2.63 22.26-2.63L22.26-2.63L33.83-2.63L33.83 3.03L22.26 3.03Q21.97 3.03 21.97 3.35L21.97 3.35L21.97 5.20Q21.97 5.49 22.26 5.49L22.26 5.49L36.57 5.49L36.57 11.18L16.28 11.18L16.28-13.74L36.57-13.74L36.57-7.97Z"/><path fill="#545454" opacity="1" d="M57.33-13.74L63.41-13.74L54.37 11.22L49.39 11.22L40.34-13.74L46.43-13.74L51.59 0.61Q51.67 0.79 51.88 0.79Q52.09 0.79 52.16 0.61L52.16 0.61L57.33-13.74Z"/><path fill="#545454" opacity="1" d="M81.43-13.74L87.12-13.74L87.12 11.22L82.07 11.22L73.13-2.59Q73.10-2.67 73.06-2.65Q73.03-2.63 73.03-2.56L73.03-2.56L73.03 11.22L67.33 11.22L67.33-13.74L72.49-13.74L81.32-0.67Q81.36-0.60 81.39-0.62Q81.43-0.64 81.43-0.71L81.43-0.71L81.43-13.74Z"/></g><g transform="matrix(1 0 0 1 328.5688592112315 285.5979939241095)" style=""  ><path fill="#737373" opacity="1" d="M-118.01 0.37L-118.01-5.14L-116.87-5.14L-116.87 0.48Q-116.87 2.24-116.08 3.13Q-115.29 4.03-113.88 4.03Q-112.47 4.03-111.68 3.13Q-110.88 2.24-110.88 0.48L-110.88 0.48L-110.88-5.14L-109.74-5.14L-109.74 0.37Q-109.74 2.69-110.83 3.85Q-111.92 5.01-113.88 5.01Q-115.84 5.01-116.93 3.86Q-118.01 2.71-118.01 0.37L-118.01 0.37Z"/><path fill="#737373" opacity="1" d="M-107.82 4.81L-107.82-2.84L-106.91-2.84L-106.78-1.47Q-105.77-3.00-103.69-3.00L-103.69-3.00Q-102.15-3.00-101.32-2.14Q-100.49-1.28-100.49 0.34L-100.49 0.34L-100.49 4.81L-101.60 4.81L-101.60 0.32Q-101.60-2.05-103.69-2.05L-103.69-2.05Q-104.75-2.05-105.47-1.63Q-106.19-1.22-106.72-0.35L-106.72-0.35L-106.72 4.81L-107.82 4.81Z"/><path fill="#737373" opacity="1" d="M-98.51 2.47L-98.51-6.36L-97.40-6.36L-97.40 2.71Q-97.40 3.32-97.14 3.61Q-96.88 3.89-96.24 3.92L-96.24 3.92L-96.24 4.87Q-96.46 4.90-96.61 4.90L-96.61 4.90Q-98.51 4.90-98.51 2.47L-98.51 2.47Z"/><path fill="#737373" opacity="1" d="M-87.95 1.23L-87.95 1.23L-94.37 1.23Q-94.30 2.60-93.40 3.30Q-92.51 4.00-91.18 4.00L-91.18 4.00Q-89.59 4.00-88.51 3.43L-88.51 3.43L-88.19 4.39Q-89.43 4.96-91.24 4.96L-91.24 4.96Q-93.27 4.96-94.38 3.90Q-95.49 2.83-95.49 1.00L-95.49 1.00Q-95.49-0.78-94.31-1.89Q-93.14-3.00-91.35-3.00L-91.35-3.00Q-89.60-3.00-88.71-2.14Q-87.83-1.28-87.83 0.14L-87.83 0.14Q-87.83 0.74-87.95 1.23ZM-94.36 0.29L-94.36 0.29L-88.88 0.29Q-88.88-0.96-89.50-1.50Q-90.12-2.05-91.47-2.05L-91.47-2.05Q-92.57-2.05-93.40-1.43Q-94.24-0.81-94.36 0.29Z"/><path fill="#737373" opacity="1" d="M-85.75-1.45L-85.75-1.45L-86.04-2.37Q-84.57-3.00-82.90-3.00Q-81.23-3.00-80.45-2.37Q-79.67-1.74-79.67-0.38L-79.67-0.38L-79.67 2.94Q-79.67 3.55-79.46 3.78Q-79.24 4.01-78.65 4.03L-78.65 4.03L-78.65 4.81Q-79.06 4.96-79.49 4.96L-79.49 4.96Q-79.96 4.96-80.21 4.66Q-80.47 4.36-80.53 3.64L-80.53 3.64Q-81.75 4.96-83.92 4.96L-83.92 4.96Q-85.26 4.96-85.91 4.36Q-86.57 3.77-86.57 2.68L-86.57 2.68Q-86.57 1.67-85.91 0.90L-85.91 0.90Q-84.00 0.32-80.76 0.23L-80.76 0.23L-80.76-0.33Q-80.76-1.24-81.25-1.63Q-81.74-2.03-82.98-2.03L-82.98-2.03Q-84.35-2.03-85.75-1.45ZM-80.76 2.82L-80.76 2.82L-80.76 1.04Q-83.34 1.09-85.04 1.53L-85.04 1.53Q-85.44 1.99-85.44 2.59L-85.44 2.59Q-85.44 4.00-83.82 4.00L-83.82 4.00Q-81.95 4.00-80.76 2.82Z"/><path fill="#737373" opacity="1" d="M-71.68-2.55L-71.68-2.55L-72.07-1.63Q-73.11-2.06-74.35-2.06L-74.35-2.06Q-76.46-2.06-76.46-0.93L-76.46-0.93Q-76.46-0.35-75.94-0.10Q-75.42 0.16-74.26 0.31L-74.26 0.31Q-71.27 0.71-71.27 2.71L-71.27 2.71Q-71.27 3.84-72.21 4.40Q-73.15 4.96-74.87 4.96L-74.87 4.96Q-76.47 4.96-77.54 4.50L-77.54 4.50L-77.25 3.52Q-76.15 4.00-74.93 4.00L-74.93 4.00Q-72.33 4.00-72.33 2.69L-72.33 2.69Q-72.33 2.07-72.86 1.75Q-73.38 1.44-74.62 1.30L-74.62 1.30Q-77.53 0.98-77.53-0.87L-77.53-0.87Q-77.53-1.82-76.71-2.41Q-75.89-3.00-74.33-3.00L-74.33-3.00Q-72.83-3.00-71.68-2.55Z"/><path fill="#737373" opacity="1" d="M-69.82 4.81L-69.82-6.36L-68.72-6.36L-68.72-1.56Q-67.66-3.00-65.76-3.00L-65.76-3.00Q-64.22-3.00-63.37-2.14Q-62.52-1.28-62.52 0.34L-62.52 0.34L-62.52 4.81L-63.62 4.81L-63.62 0.32Q-63.62-0.82-64.16-1.44Q-64.71-2.05-65.76-2.05L-65.76-2.05Q-66.79-2.05-67.47-1.64Q-68.15-1.24-68.72-0.35L-68.72-0.35L-68.72 4.81L-69.82 4.81Z"/><path fill="#737373" opacity="1" d=""/><path fill="#737373" opacity="1" d="M-56.02 4.81L-56.02-5.14L-52.39-5.14Q-49.82-5.14-48.42-3.85Q-47.02-2.57-47.02-0.23L-47.02-0.23Q-47.02 2.17-48.56 3.49Q-50.10 4.81-52.71 4.81L-52.71 4.81L-56.02 4.81ZM-52.39-4.16L-54.87-4.16L-54.87 3.81L-52.71 3.81Q-50.66 3.81-49.42 2.82Q-48.18 1.82-48.18-0.23L-48.18-0.23Q-48.18-4.16-52.39-4.16L-52.39-4.16Z"/><path fill="#737373" opacity="1" d="M-45.02-1.45L-45.02-1.45L-45.31-2.37Q-43.84-3.00-42.17-3.00Q-40.50-3.00-39.72-2.37Q-38.94-1.74-38.94-0.38L-38.94-0.38L-38.94 2.94Q-38.94 3.55-38.73 3.78Q-38.51 4.01-37.92 4.03L-37.92 4.03L-37.92 4.81Q-38.33 4.96-38.76 4.96L-38.76 4.96Q-39.23 4.96-39.49 4.66Q-39.74 4.36-39.80 3.64L-39.80 3.64Q-41.02 4.96-43.20 4.96L-43.20 4.96Q-44.53 4.96-45.19 4.36Q-45.84 3.77-45.84 2.68L-45.84 2.68Q-45.84 1.67-45.19 0.90L-45.19 0.90Q-43.27 0.32-40.03 0.23L-40.03 0.23L-40.03-0.33Q-40.03-1.24-40.52-1.63Q-41.01-2.03-42.25-2.03L-42.25-2.03Q-43.62-2.03-45.02-1.45ZM-40.03 2.82L-40.03 2.82L-40.03 1.04Q-42.61 1.09-44.31 1.53L-44.31 1.53Q-44.71 1.99-44.71 2.59L-44.71 2.59Q-44.71 4.00-43.09 4.00L-43.09 4.00Q-41.22 4.00-40.03 2.82Z"/><path fill="#737373" opacity="1" d="M-36.27-1.86L-37.50-2.03L-37.50-2.48L-36.56-3.06L-35.50-4.73L-35.16-4.68L-35.16-2.84L-32.03-2.84L-32.07-1.86L-35.16-1.97L-35.16 2.21Q-35.16 3.98-33.56 3.98L-33.56 3.98Q-32.64 3.98-31.86 3.51L-31.86 3.51L-31.45 4.38Q-32.38 4.96-33.68 4.96L-33.68 4.96Q-36.27 4.96-36.27 2.22L-36.27 2.22L-36.27-1.86Z"/><path fill="#737373" opacity="1" d="M-29.52-1.45L-29.52-1.45L-29.81-2.37Q-28.34-3.00-26.67-3.00Q-25.00-3.00-24.22-2.37Q-23.44-1.74-23.44-0.38L-23.44-0.38L-23.44 2.94Q-23.44 3.55-23.23 3.78Q-23.02 4.01-22.42 4.03L-22.42 4.03L-22.42 4.81Q-22.83 4.96-23.26 4.96L-23.26 4.96Q-23.73 4.96-23.99 4.66Q-24.24 4.36-24.30 3.64L-24.30 3.64Q-25.52 4.96-27.70 4.96L-27.70 4.96Q-29.03 4.96-29.69 4.36Q-30.34 3.77-30.34 2.68L-30.34 2.68Q-30.34 1.67-29.69 0.90L-29.69 0.90Q-27.77 0.32-24.53 0.23L-24.53 0.23L-24.53-0.33Q-24.53-1.24-25.02-1.63Q-25.51-2.03-26.75-2.03L-26.75-2.03Q-28.13-2.03-29.52-1.45ZM-24.53 2.82L-24.53 2.82L-24.53 1.04Q-27.12 1.09-28.81 1.53L-28.81 1.53Q-29.21 1.99-29.21 2.59L-29.21 2.59Q-29.21 4.00-27.59 4.00L-27.59 4.00Q-25.72 4.00-24.53 2.82Z"/><path fill="#737373" opacity="1" d=""/><path fill="#737373" opacity="1" d="M-16.50 4.81L-16.50-5.14L-13.13-5.14Q-11.43-5.14-10.35-4.32Q-9.26-3.50-9.26-2.08L-9.26-2.08Q-9.26-0.61-10.33 0.22Q-11.40 1.04-13.13 1.04L-13.13 1.04L-15.35 1.04L-15.35 4.81L-16.50 4.81ZM-13.36-4.16L-15.35-4.16L-15.35 0.05L-13.36 0.05Q-10.41 0.05-10.41-2.08L-10.41-2.08Q-10.41-4.16-13.36-4.16L-13.36-4.16Z"/><path fill="#737373" opacity="1" d="M-1.15-1.90Q0.06-0.81 0.06 0.98Q0.06 2.77-1.15 3.87Q-2.36 4.96-4.18 4.96Q-6.00 4.96-7.21 3.87Q-8.42 2.77-8.42 0.98Q-8.42-0.81-7.21-1.90Q-6.00-3.00-4.18-3.00Q-2.36-3.00-1.15-1.90ZM-6.44-1.24Q-7.30-0.40-7.30 0.98Q-7.30 2.36-6.44 3.20Q-5.57 4.04-4.18 4.04Q-2.79 4.04-1.92 3.20Q-1.06 2.36-1.06 0.98Q-1.06-0.40-1.92-1.24Q-2.79-2.08-4.18-2.08Q-5.57-2.08-6.44-1.24Z"/><path fill="#737373" opacity="1" d="M1.83-1.86L0.59-2.03L0.59-2.48L1.54-3.06L2.60-4.73L2.93-4.68L2.93-2.84L6.07-2.84L6.02-1.86L2.93-1.97L2.93 2.21Q2.93 3.98 4.54 3.98L4.54 3.98Q5.46 3.98 6.24 3.51L6.24 3.51L6.65 4.38Q5.72 4.96 4.42 4.96L4.42 4.96Q1.83 4.96 1.83 2.22L1.83 2.22L1.83-1.86Z"/><path fill="#737373" opacity="1" d="M14.65 1.23L14.65 1.23L8.23 1.23Q8.30 2.60 9.20 3.30Q10.09 4.00 11.42 4.00L11.42 4.00Q13.02 4.00 14.09 3.43L14.09 3.43L14.41 4.39Q13.17 4.96 11.36 4.96L11.36 4.96Q9.33 4.96 8.22 3.90Q7.11 2.83 7.11 1.00L7.11 1.00Q7.11-0.78 8.29-1.89Q9.47-3.00 11.26-3.00L11.26-3.00Q13.00-3.00 13.89-2.14Q14.78-1.28 14.78 0.14L14.78 0.14Q14.78 0.74 14.65 1.23ZM8.24 0.29L8.24 0.29L13.72 0.29Q13.72-0.96 13.10-1.50Q12.48-2.05 11.13-2.05L11.13-2.05Q10.03-2.05 9.20-1.43Q8.36-0.81 8.24 0.29Z"/><path fill="#737373" opacity="1" d="M16.31 4.81L16.31-2.84L17.22-2.84L17.35-1.47Q18.36-3.00 20.44-3.00L20.44-3.00Q21.98-3.00 22.81-2.14Q23.63-1.28 23.63 0.34L23.63 0.34L23.63 4.81L22.53 4.81L22.53 0.32Q22.53-2.05 20.44-2.05L20.44-2.05Q19.38-2.05 18.66-1.63Q17.94-1.22 17.41-0.35L17.41-0.35L17.41 4.81L16.31 4.81Z"/><path fill="#737373" opacity="1" d="M25.87-1.86L24.63-2.03L24.63-2.48L25.58-3.06L26.63-4.73L26.97-4.68L26.97-2.84L30.11-2.84L30.06-1.86L26.97-1.97L26.97 2.21Q26.97 3.98 28.58 3.98L28.58 3.98Q29.49 3.98 30.27 3.51L30.27 3.51L30.69 4.38Q29.75 4.96 28.45 4.96L28.45 4.96Q25.87 4.96 25.87 2.22L25.87 2.22L25.87-1.86Z"/><path fill="#737373" opacity="1" d="M31.91 4.81L31.91-2.84L33.01-2.84L33.01 4.81L31.91 4.81ZM31.83-5.85Q32.06-6.10 32.46-6.10Q32.86-6.10 33.10-5.85Q33.33-5.60 33.33-5.23L33.33-5.23Q33.33-4.88 33.09-4.62Q32.84-4.36 32.46-4.36Q32.08-4.36 31.84-4.62Q31.59-4.88 31.59-5.23L31.59-5.23Q31.59-5.60 31.83-5.85Z"/><path fill="#737373" opacity="1" d="M35.71-1.45L35.71-1.45L35.42-2.37Q36.88-3.00 38.55-3.00Q40.22-3.00 41.00-2.37Q41.78-1.74 41.78-0.38L41.78-0.38L41.78 2.94Q41.78 3.55 41.99 3.78Q42.21 4.01 42.81 4.03L42.81 4.03L42.81 4.81Q42.39 4.96 41.96 4.96L41.96 4.96Q41.49 4.96 41.24 4.66Q40.98 4.36 40.92 3.64L40.92 3.64Q39.70 4.96 37.53 4.96L37.53 4.96Q36.20 4.96 35.54 4.36Q34.88 3.77 34.88 2.68L34.88 2.68Q34.88 1.67 35.54 0.90L35.54 0.90Q37.45 0.32 40.69 0.23L40.69 0.23L40.69-0.33Q40.69-1.24 40.20-1.63Q39.71-2.03 38.48-2.03L38.48-2.03Q37.10-2.03 35.71-1.45ZM40.69 2.82L40.69 2.82L40.69 1.04Q38.11 1.09 36.41 1.53L36.41 1.53Q36.01 1.99 36.01 2.59L36.01 2.59Q36.01 4.00 37.63 4.00L37.63 4.00Q39.50 4.00 40.69 2.82Z"/><path fill="#737373" opacity="1" d="M43.91 2.47L43.91-6.36L45.01-6.36L45.01 2.71Q45.01 3.32 45.27 3.61Q45.53 3.89 46.17 3.92L46.17 3.92L46.17 4.87Q45.96 4.90 45.80 4.90L45.80 4.90Q43.91 4.90 43.91 2.47L43.91 2.47Z"/></g></svg>