<?xml version="1.0" encoding="utf-8"?>
<!-- Generator: Adobe Illustrator 24.0.0, SVG Export Plug-In . SVG Version: 6.00 Build 0)  -->
<svg version="1.1" id="Layer_1" xmlns="http://www.w3.org/2000/svg" xmlns:xlink="http://www.w3.org/1999/xlink" x="0px" y="0px"
	 viewBox="0 0 500 500" style="enable-background:new 0 0 500 500;" xml:space="preserve">
<style type="text/css">
	.st0{opacity:0.3;fill:#737373;enable-background:new    ;}
	.st1{fill:url(#SVGID_1_);}
</style>
<desc>Created with Fabric.js 3.6.3</desc>
<g transform="matrix(0.21341282063755618 0.032587181330443915 -0.03258718133044393 0.2134128206375562 250 250)">
	<path class="st0" d="M-448.7-1039.7c-326.9,0-591,264.1-591,591l0,897.4c0,326.9,264.1,591,591,591l897.4,0
		c326.9,0,591-264.1,591-591l0-897.4c0-326.9-264.1-591-591-591C448.7-1039.7-448.7-1039.7-448.7-1039.7z"/>
</g>
<g transform="matrix(0.19725079815031887 -4.831e-17 4.831e-17 0.19725079815031885 250.00000000000028 250.00000000000006)">
	<path d="M-448.7-1039.7c-326.9,0-591,264.1-591,591v897.4c0,326.9,264.1,591,591,591h897.4c326.9,0,591-264.1,591-591v-897.4
		c0-326.9-264.1-591-591-591C448.7-1039.7-448.7-1039.7-448.7-1039.7z"/>
</g>
<g transform="matrix(0.7071572946851343 0 0 0.7071572946851342 249.99999999999997 250.00000000000028)">
	
		<linearGradient id="SVGID_1_" gradientUnits="userSpaceOnUse" x1="-416.8216" y1="442.5812" x2="-65.3093" y2="81.2497" gradientTransform="matrix(0.7072 0 0 -0.7072 125.3317 126.1512)">
		<stop  offset="0" style="stop-color:#00DDFF"/>
		<stop  offset="1" style="stop-color:#FF00D4"/>
	</linearGradient>
	<path class="st1" d="M-114.6-36.5C-83-29.1-40.9-24.5,5.3-24.5c71.4,0,133-10.8,161.2-26.3l9.2-61.6
		c-31.6,10.7-85.7,17.8-147.1,17.8c-97.4,0-176.4-17.8-176.4-39.7c0-21.9,79-39.7,176.4-39.7c43.4,0,83.1,3.5,113.9,9.4
		c-32.5-9.7-83.4-16-140.5-16c-98.2,0-177.8,18.4-177.8,41.1c0,0.6,0.1,1.1,0.2,1.7h0l12.3,82.2c6.1,4.7,15,9,26.3,12.8
		c-14.1,5.5-22.3,12-22.3,18.8c0,0.5,0.1,1,0.2,1.5h0l11.1,74.1c6.5,5,16.6,9.9,29.6,14.4c-17.4,5.6-27.7,12.4-27.7,19.8
		c0,0.5,0.1,0.9,0.1,1.4h0l10.2,59c19.4,14.9,74.4,34.4,139.2,34.4c59,0,107.6-13.3,130.9-26.1l9.8-57.4
		C118,106,60.2,122.8,9.5,122.8C-71,122.8-123,108.2-123,90.1c0-6.7,9-12.9,24.4-18.1C-70.8,79.2-35,84.1,4.2,84.1
		C68.7,84.1,124.3,70,149.8,56l8.3-62.1C129.6,3.5,80.8,16.5,25.3,16.5c-88,0-159.3-16-159.3-35.8C-134-25.5-127-31.4-114.6-36.5z"
		/>
</g>
</svg>
