<svg xmlns="http://www.w3.org/2000/svg" xmlns:svg="http://www.w3.org/2000/svg" version="1.1" xml:space="preserve" viewBox="66.36 192.36 353.87 123">
 <desc>Created with Fabric.js 3.6.3</desc>

 <g class="layer">
  <title>Layer 1</title>
  <g id="svg_40">
   <g id="svg_1" transform="matrix(0.213413 0.0325872 -0.0325872 0.213413 135 251)">
    <path d="m208.61,176.24c-78.6,0 -142.11,63.5 -142.11,142.1l0,215.79c0,78.6 63.51,142.11 142.11,142.11l215.79,0c78.6,0 142.1,-63.51 142.1,-142.11l0,-215.79c0,-78.6 -63.5,-142.1 -142.1,-142.1l-215.79,0z" fill="rgb(115,115,115)" fill-rule="nonzero" id="svg_2" opacity="0.3" stroke-dashoffset="0" stroke-linecap="round" stroke-linejoin="round" stroke-miterlimit="4" stroke-width="0" transform="translate(-347.214 -408.156)"/>
   </g>
   <g id="svg_3" transform="matrix(0.197251 -4.83100e-17 4.83100e-17 0.197251 135 251)">
    <path d="m203.11,172.64c-78.6,0 -142.11,63.5 -142.11,142.1l0,215.79c0,78.6 63.51,142.11 142.11,142.11l215.79,0c78.6,0 142.1,-63.51 142.1,-142.11l0,-215.79c0,-78.6 -63.5,-142.1 -142.1,-142.1l-215.79,0z" fill="rgb(0,0,0)" fill-rule="nonzero" id="svg_4" stroke-dashoffset="0" stroke-linecap="round" stroke-linejoin="round" stroke-miterlimit="4" stroke-width="0" transform="translate(-347.214 -408.156)"/>
   </g>
   <g id="svg_5" transform="matrix(0.707157 0 0 0.707157 135 251)">
    <linearGradient id="SVGID_39400" x1="0" x2="1" y1="0" y2="1">
     <stop offset="0%" stop-color="rgb(0,221,255)"/>
     <stop offset="100%" stop-color="rgb(255,0,212)"/>
    </linearGradient>
    <path d="m13.61,45.32c7.59,1.78 17.71,2.87 28.82,2.87c17.18,0 31.98,-2.6 38.77,-6.33l2.22,-14.82c-7.6,2.58 -20.6,4.27 -35.36,4.27c-23.43,0 -42.43,-4.27 -42.43,-9.54c0,-5.27 19,-9.54 42.43,-9.54c10.43,0 19.98,0.85 27.37,2.25c-7.82,-2.33 -20.04,-3.83 -33.79,-3.83c-23.6,0 -42.74,4.43 -42.74,9.89c0,0.14 0.02,0.27 0.04,0.4l0,0l2.96,19.77c1.46,1.12 3.61,2.16 6.31,3.09c-3.4,1.33 -5.35,2.87 -5.35,4.53c0,0.12 0.02,0.24 0.04,0.36l-0.01,0l2.67,17.82c1.57,1.2 4,2.39 7.11,3.47c-4.18,1.34 -6.65,2.98 -6.65,4.76c0,0.11 0.02,0.22 0.04,0.33l0,0l2.44,14.19c4.67,3.58 17.89,8.27 33.47,8.27c14.18,0 25.87,-3.19 31.48,-6.27l2.36,-13.8c-6.27,2.13 -20.17,6.16 -32.37,6.16c-19.34,0 -31.86,-3.52 -31.86,-7.86c0,-1.61 2.16,-3.11 5.86,-4.36c6.7,1.72 15.32,2.91 24.73,2.91c15.51,0 28.88,-3.39 35.02,-6.76l2,-14.94c-6.86,2.32 -18.6,5.43 -31.94,5.43c-21.16,0 -38.31,-3.85 -38.31,-8.6c0,-1.49 1.69,-2.9 4.67,-4.12z" fill="url(#SVGID_39400)" fill-rule="nonzero" id="svg_6" stroke-dashoffset="0" stroke-miterlimit="4" stroke-width="0" transform="translate(-51.26 -50.0475)"/>
   </g>
   <g id="svg_7" transform="matrix(1 0 0 1 340.244 249.99)">
    <path d="m-118.06,-8.17l0,0q3.81,3.2 3.81,9.79l0,0q0,6.76 -3.85,9.97l0,0q-3.06,2.49 -8.65,2.49l0,0l-10.71,0l0,-24.99l10.71,0q5.45,0 8.69,2.74zm-13.42,16.55l4.73,0q1.93,0 3.23,-0.34q1.29,-0.33 2.1,-1.13q0.8,-0.81 1.14,-2.1q0.33,-1.3 0.33,-3.19l0,0q0,-3.88 -1.81,-5.45l0,0q-1.64,-1.35 -4.99,-1.35l0,0l-4.73,0q-0.29,0 -0.29,0.28l0,0l0,13q0,0.28 0.29,0.28l0,0z" fill="#545454" id="svg_8"/>
    <path d="m-94.6,-10.88l8.97,24.96l-6.05,0l-0.93,-2.53q-0.07,-0.25 -0.32,-0.25l0,0l-10.75,0q-0.21,0 -0.32,0.25l0,0l-0.89,2.53l-6.05,0l8.97,-24.96l7.37,0zm-4.02,7.48l-3.06,8.54q-0.08,0.18 0.03,0.32q0.11,0.15 0.29,0.15l0,0l6.16,0q0.46,0 0.32,-0.47l0,0l-3.07,-8.54q-0.1,-0.25 -0.35,-0.25q-0.25,0 -0.32,0.25l0,0z" fill="#545454" id="svg_9"/>
    <path d="m-87.3,-10.88l22.03,0l0,5.7l-7.9,0q-0.25,0 -0.25,0.25l0,0l0,19.01l-5.69,0l0,-19.01q0,-0.25 -0.25,-0.25l0,0l-7.94,0l0,-5.7z" fill="#545454" id="svg_10"/>
    <path d="m-50.28,-10.88l8.97,24.96l-6.05,0l-0.92,-2.53q-0.08,-0.25 -0.32,-0.25l0,0l-10.76,0q-0.21,0 -0.32,0.25l0,0l-0.89,2.53l-6.05,0l8.97,-24.96l7.37,0zm-4.02,7.48l-3.06,8.54q-0.07,0.18 0.03,0.32q0.11,0.15 0.29,0.15l0,0l6.16,0q0.46,0 0.32,-0.47l0,0l-3.06,-8.54q-0.11,-0.25 -0.36,-0.25q-0.25,0 -0.32,0.25l0,0z" fill="#545454" id="svg_11"/>
    <path d="m-19.38,1.48l0,0q0.93,1.03 1.41,2.31q0.48,1.28 0.48,2.67l0,0q0,1.57 -0.59,2.94q-0.58,1.37 -1.62,2.4q-1.03,1.03 -2.4,1.62q-1.37,0.59 -2.94,0.59l0,0l-13.35,0l0,-24.85l13.35,0q1.6,0 2.99,0.59q1.39,0.58 2.42,1.69l0,0q0.93,1.03 1.45,2.38q0.51,1.36 0.51,2.89l0,0q0,2.74 -1.71,4.77zm-13.35,-6.34l0,3.27q0,0.33 0.36,0.33l0,0l7.12,0q0.75,0 1.32,-0.59q0.57,-0.59 0.57,-1.41l0,0q0.03,-0.82 -0.54,-1.37q-0.57,-0.55 -1.35,-0.55l0,0l-7.12,0q-0.36,0 -0.36,0.32l0,0zm0,9.61l0,3.28q0,0.32 0.36,0.32l0,0l7.3,0q0.78,0 1.35,-0.55q0.57,-0.56 0.57,-1.38l0,0q-0.04,-0.81 -0.59,-1.4q-0.55,-0.59 -1.3,-0.59l0,0l-7.33,0q-0.36,0 -0.36,0.32l0,0z" fill="#545454" id="svg_12"/>
    <path d="m-7.88,7.99l0,0q0,0.39 0.39,0.39l0,0l12.78,0l0,5.7l-18.86,0l0,-24.96l5.69,0l0,18.87z" fill="#545454" id="svg_13"/>
    <path d="m29.43,-5.11l-14.31,0q-0.29,0 -0.29,0.29l0,0l0,4.73q0,0.32 0.29,0.32l0,0l11.57,0l0,5.66l-11.57,0q-0.29,0 -0.29,0.32l0,0l0,1.85q0,0.29 0.29,0.29l0,0l14.31,0l0,5.69l-20.29,0l0,-24.92l20.29,0l0,5.77z" fill="#545454" id="svg_14"/>
    <path d="m50.19,-10.88l6.08,0l-9.04,24.96l-4.98,0l-9.05,-24.96l6.09,0l5.16,14.35q0.08,0.18 0.29,0.18q0.21,0 0.28,-0.18l0,0l5.17,-14.35z" fill="#545454" id="svg_15"/>
    <path d="m74.29,-10.88l5.69,0l0,24.96l-5.05,0l-8.94,-13.81q-0.03,-0.08 -0.07,-0.06q-0.03,0.02 -0.03,0.09l0,0l0,13.78l-5.7,0l0,-24.96l5.16,0l8.83,13.07q0.04,0.07 0.07,0.05q0.04,-0.02 0.04,-0.09l0,0l0,-13.03z" fill="#545454" id="svg_16"/>
   </g>
   <g id="svg_17" transform="matrix(1 0 0 1 328.569 285.598)">
    <path d="m-125.15,3.23l0,-5.51l1.14,0l0,5.62q0,1.76 0.79,2.65q0.79,0.9 2.2,0.9q1.41,0 2.2,-0.9q0.8,-0.89 0.8,-2.65l0,0l0,-5.62l1.14,0l0,5.51q0,2.32 -1.09,3.48q-1.09,1.16 -3.05,1.16q-1.96,0 -3.05,-1.15q-1.08,-1.15 -1.08,-3.49l0,0z" fill="#737373" id="svg_18"/>
    <path d="m-114.96,7.67l0,-7.65l0.91,0l0.13,1.37q1.01,-1.53 3.09,-1.53l0,0q1.54,0 2.37,0.86q0.83,0.86 0.83,2.48l0,0l0,4.47l-1.11,0l0,-4.49q0,-2.37 -2.09,-2.37l0,0q-1.06,0 -1.78,0.42q-0.72,0.41 -1.25,1.28l0,0l0,5.16l-1.1,0z" fill="#737373" id="svg_19"/>
    <path d="m-105.65,5.33l0,-8.83l1.11,0l0,9.07q0,0.61 0.26,0.9q0.26,0.28 0.9,0.31l0,0l0,0.95q-0.22,0.03 -0.37,0.03l0,0q-1.9,0 -1.9,-2.43l0,0z" fill="#737373" id="svg_20"/>
    <path d="m-95.09,4.09l0,0l-6.42,0q0.07,1.37 0.97,2.07q0.89,0.7 2.22,0.7l0,0q1.59,0 2.67,-0.57l0,0l0.32,0.96q-1.24,0.57 -3.05,0.57l0,0q-2.03,0 -3.14,-1.06q-1.11,-1.07 -1.11,-2.9l0,0q0,-1.78 1.18,-2.89q1.17,-1.11 2.96,-1.11l0,0q1.75,0 2.64,0.86q0.88,0.86 0.88,2.28l0,0q0,0.6 -0.12,1.09zm-6.41,-0.94l0,0l5.48,0q0,-1.25 -0.62,-1.79q-0.62,-0.55 -1.97,-0.55l0,0q-1.1,0 -1.93,0.62q-0.84,0.62 -0.96,1.72z" fill="#737373" id="svg_21"/>
    <path d="m-92.89,1.41l0,0l-0.29,-0.92q1.47,-0.63 3.14,-0.63q1.67,0 2.45,0.63q0.78,0.63 0.78,1.99l0,0l0,3.32q0,0.61 0.21,0.84q0.22,0.23 0.81,0.25l0,0l0,0.78q-0.41,0.15 -0.84,0.15l0,0q-0.47,0 -0.72,-0.3q-0.26,-0.3 -0.32,-1.02l0,0q-1.22,1.32 -3.39,1.32l0,0q-1.34,0 -1.99,-0.6q-0.66,-0.59 -0.66,-1.68l0,0q0,-1.01 0.66,-1.78l0,0q1.91,-0.58 5.15,-0.67l0,0l0,-0.56q0,-0.91 -0.49,-1.3q-0.49,-0.4 -1.73,-0.4l0,0q-1.37,0 -2.77,0.58zm4.99,4.27l0,0l0,-1.78q-2.58,0.05 -4.28,0.49l0,0q-0.4,0.46 -0.4,1.06l0,0q0,1.41 1.62,1.41l0,0q1.87,0 3.06,-1.18z" fill="#737373" id="svg_22"/>
    <path d="m-78.82,0.31l0,0l-0.39,0.92q-1.04,-0.43 -2.28,-0.43l0,0q-2.11,0 -2.11,1.13l0,0q0,0.58 0.52,0.83q0.52,0.26 1.68,0.41l0,0q2.99,0.4 2.99,2.4l0,0q0,1.13 -0.94,1.69q-0.94,0.56 -2.66,0.56l0,0q-1.6,0 -2.67,-0.46l0,0l0.29,-0.98q1.1,0.48 2.32,0.48l0,0q2.6,0 2.6,-1.31l0,0q0,-0.62 -0.53,-0.94q-0.52,-0.31 -1.76,-0.45l0,0q-2.91,-0.32 -2.91,-2.17l0,0q0,-0.95 0.82,-1.54q0.82,-0.59 2.38,-0.59l0,0q1.5,0 2.65,0.45z" fill="#737373" id="svg_23"/>
    <path d="m-76.96,7.67l0,-11.17l1.1,0l0,4.8q1.06,-1.44 2.96,-1.44l0,0q1.54,0 2.39,0.86q0.85,0.86 0.85,2.48l0,0l0,4.47l-1.1,0l0,-4.49q0,-1.14 -0.54,-1.76q-0.55,-0.61 -1.6,-0.61l0,0q-1.03,0 -1.71,0.41q-0.68,0.4 -1.25,1.29l0,0l0,5.16l-1.1,0z" fill="#737373" id="svg_24"/>
    <path fill="#737373" id="svg_25"/>
    <path d="m-63.16,7.67l0,-9.95l3.63,0q2.57,0 3.97,1.29q1.4,1.28 1.4,3.62l0,0q0,2.4 -1.54,3.72q-1.54,1.32 -4.15,1.32l0,0l-3.31,0zm3.63,-8.97l-2.48,0l0,7.97l2.16,0q2.05,0 3.29,-0.99q1.24,-1 1.24,-3.05l0,0q0,-3.93 -4.21,-3.93l0,0z" fill="#737373" id="svg_26"/>
    <path d="m-52.16,1.41l0,0l-0.29,-0.92q1.47,-0.63 3.14,-0.63q1.67,0 2.45,0.63q0.78,0.63 0.78,1.99l0,0l0,3.32q0,0.61 0.21,0.84q0.22,0.23 0.81,0.25l0,0l0,0.78q-0.41,0.15 -0.84,0.15l0,0q-0.47,0 -0.73,-0.3q-0.25,-0.3 -0.31,-1.02l0,0q-1.22,1.32 -3.4,1.32l0,0q-1.33,0 -1.99,-0.6q-0.65,-0.59 -0.65,-1.68l0,0q0,-1.01 0.65,-1.78l0,0q1.92,-0.58 5.16,-0.67l0,0l0,-0.56q0,-0.91 -0.49,-1.3q-0.49,-0.4 -1.73,-0.4l0,0q-1.37,0 -2.77,0.58zm4.99,4.27l0,0l0,-1.78q-2.58,0.05 -4.28,0.49l0,0q-0.4,0.46 -0.4,1.06l0,0q0,1.41 1.62,1.41l0,0q1.87,0 3.06,-1.18z" fill="#737373" id="svg_27"/>
    <path d="m-43.41,1l-1.23,-0.17l0,-0.45l0.94,-0.58l1.06,-1.67l0.34,0.05l0,1.84l3.13,0l-0.04,0.98l-3.09,-0.11l0,4.18q0,1.77 1.6,1.77l0,0q0.92,0 1.7,-0.47l0,0l0.41,0.87q-0.93,0.58 -2.23,0.58l0,0q-2.59,0 -2.59,-2.74l0,0l0,-4.08z" fill="#737373" id="svg_28"/>
    <path d="m-36.66,1.41l0,0l-0.29,-0.92q1.47,-0.63 3.14,-0.63q1.67,0 2.45,0.63q0.78,0.63 0.78,1.99l0,0l0,3.32q0,0.61 0.21,0.84q0.21,0.23 0.81,0.25l0,0l0,0.78q-0.41,0.15 -0.84,0.15l0,0q-0.47,0 -0.73,-0.3q-0.25,-0.3 -0.31,-1.02l0,0q-1.22,1.32 -3.4,1.32l0,0q-1.33,0 -1.99,-0.6q-0.65,-0.59 -0.65,-1.68l0,0q0,-1.01 0.65,-1.78l0,0q1.92,-0.58 5.16,-0.67l0,0l0,-0.56q0,-0.91 -0.49,-1.3q-0.49,-0.4 -1.73,-0.4l0,0q-1.38,0 -2.77,0.58zm4.99,4.27l0,0l0,-1.78q-2.59,0.05 -4.28,0.49l0,0q-0.4,0.46 -0.4,1.06l0,0q0,1.41 1.62,1.41l0,0q1.87,0 3.06,-1.18z" fill="#737373" id="svg_29"/>
    <path fill="#737373" id="svg_30"/>
    <path d="m-23.64,7.67l0,-9.95l3.37,0q1.7,0 2.78,0.82q1.09,0.82 1.09,2.24l0,0q0,1.47 -1.07,2.3q-1.07,0.82 -2.8,0.82l0,0l-2.22,0l0,3.77l-1.15,0zm3.14,-8.97l-1.99,0l0,4.21l1.99,0q2.95,0 2.95,-2.13l0,0q0,-2.08 -2.95,-2.08l0,0z" fill="#737373" id="svg_31"/>
    <path d="m-8.29,0.96q1.21,1.09 1.21,2.88q0,1.79 -1.21,2.89q-1.21,1.09 -3.03,1.09q-1.82,0 -3.03,-1.09q-1.21,-1.1 -1.21,-2.89q0,-1.79 1.21,-2.88q1.21,-1.1 3.03,-1.1q1.82,0 3.03,1.1zm-5.29,0.66q-0.86,0.84 -0.86,2.22q0,1.38 0.86,2.22q0.87,0.84 2.26,0.84q1.39,0 2.26,-0.84q0.86,-0.84 0.86,-2.22q0,-1.38 -0.86,-2.22q-0.87,-0.84 -2.26,-0.84q-1.39,0 -2.26,0.84z" fill="#737373" id="svg_32"/>
    <path d="m-5.31,1l-1.24,-0.17l0,-0.45l0.95,-0.58l1.06,-1.67l0.33,0.05l0,1.84l3.14,0l-0.05,0.98l-3.09,-0.11l0,4.18q0,1.77 1.61,1.77l0,0q0.92,0 1.7,-0.47l0,0l0.41,0.87q-0.93,0.58 -2.23,0.58l0,0q-2.59,0 -2.59,-2.74l0,0l0,-4.08z" fill="#737373" id="svg_33"/>
    <path d="m7.51,4.09l0,0l-6.42,0q0.07,1.37 0.97,2.07q0.89,0.7 2.22,0.7l0,0q1.6,0 2.67,-0.57l0,0l0.32,0.96q-1.24,0.57 -3.05,0.57l0,0q-2.03,0 -3.14,-1.06q-1.11,-1.07 -1.11,-2.9l0,0q0,-1.78 1.18,-2.89q1.18,-1.11 2.97,-1.11l0,0q1.74,0 2.63,0.86q0.89,0.86 0.89,2.28l0,0q0,0.6 -0.13,1.09zm-6.41,-0.94l0,0l5.48,0q0,-1.25 -0.62,-1.79q-0.62,-0.55 -1.97,-0.55l0,0q-1.1,0 -1.93,0.62q-0.84,0.62 -0.96,1.72z" fill="#737373" id="svg_34"/>
    <path d="m9.17,7.67l0,-7.65l0.91,0l0.13,1.37q1.01,-1.53 3.09,-1.53l0,0q1.54,0 2.37,0.86q0.82,0.86 0.82,2.48l0,0l0,4.47l-1.1,0l0,-4.49q0,-2.37 -2.09,-2.37l0,0q-1.06,0 -1.78,0.42q-0.72,0.41 -1.25,1.28l0,0l0,5.16l-1.1,0z" fill="#737373" id="svg_35"/>
    <path d="m18.73,1l-1.24,-0.17l0,-0.45l0.95,-0.58l1.05,-1.67l0.34,0.05l0,1.84l3.14,0l-0.05,0.98l-3.09,-0.11l0,4.18q0,1.77 1.61,1.77l0,0q0.91,0 1.69,-0.47l0,0l0.42,0.87q-0.94,0.58 -2.24,0.58l0,0q-2.58,0 -2.58,-2.74l0,0l0,-4.08z" fill="#737373" id="svg_36"/>
    <path d="m24.77,7.67l0,-7.65l1.1,0l0,7.65l-1.1,0zm-0.08,-10.66q0.23,-0.25 0.63,-0.25q0.4,0 0.64,0.25q0.23,0.25 0.23,0.62l0,0q0,0.35 -0.24,0.61q-0.25,0.26 -0.63,0.26q-0.38,0 -0.62,-0.26q-0.25,-0.26 -0.25,-0.61l0,0q0,-0.37 0.24,-0.62z" fill="#737373" id="svg_37"/>
    <path d="m28.57,1.41l0,0l-0.29,-0.92q1.46,-0.63 3.13,-0.63q1.67,0 2.45,0.63q0.78,0.63 0.78,1.99l0,0l0,3.32q0,0.61 0.21,0.84q0.22,0.23 0.82,0.25l0,0l0,0.78q-0.42,0.15 -0.85,0.15l0,0q-0.47,0 -0.72,-0.3q-0.26,-0.3 -0.32,-1.02l0,0q-1.22,1.32 -3.39,1.32l0,0q-1.33,0 -1.99,-0.6q-0.66,-0.59 -0.66,-1.68l0,0q0,-1.01 0.66,-1.78l0,0q1.91,-0.58 5.15,-0.67l0,0l0,-0.56q0,-0.91 -0.49,-1.3q-0.49,-0.4 -1.72,-0.4l0,0q-1.38,0 -2.77,0.58zm4.98,4.27l0,0l0,-1.78q-2.58,0.05 -4.28,0.49l0,0q-0.4,0.46 -0.4,1.06l0,0q0,1.41 1.62,1.41l0,0q1.87,0 3.06,-1.18z" fill="#737373" id="svg_38"/>
    <path d="m36.77,5.33l0,-8.83l1.1,0l0,9.07q0,0.61 0.26,0.9q0.26,0.28 0.9,0.31l0,0l0,0.95q-0.21,0.03 -0.37,0.03l0,0q-1.89,0 -1.89,-2.43l0,0z" fill="#737373" id="svg_39"/>
   </g>
  </g>
 </g>
</svg>